<?xml version="1.0" encoding="utf-8"?>
<!-- Generator: Adobe Illustrator 23.0.4, SVG Export Plug-In . SVG Version: 6.00 Build 0)  -->
<svg version="1.1" id="Layer_1" xmlns="http://www.w3.org/2000/svg" xmlns:xlink="http://www.w3.org/1999/xlink" x="0px" y="0px"
	 viewBox="0 0 925 124" style="enable-background:new 0 0 925 124;" xml:space="preserve">
<style type="text/css">
	.st0{fill:#2026D2;}
	.st1{fill:#62E1FC;}
</style>
<title>logo/atlan-collect-blue</title>
<desc>Created with Sketch.</desc>
<g>
	<g id="Logos-11">
		<path id="Path" class="st0" d="M470.8,123c-11.6,0.3-22.8-4.2-30.9-12.4c-8.2-8.2-12.6-19.5-12.3-31.1c-0.2-11.6,4.3-22.8,12.4-31
			c8.2-8.2,19.3-12.7,30.8-12.4c7.7-0.1,15.3,1.9,21.9,5.9c6.3,3.7,11.3,9.1,14.5,15.7l-12,6.9c-2.1-4.4-5.5-8.1-9.7-10.6
			c-4.4-2.7-9.4-4.2-14.6-4.1c-7.7-0.1-15.1,2.9-20.6,8.4c-5.5,5.6-8.4,13.2-8.2,21.1c-0.2,7.8,2.8,15.4,8.3,20.9s13,8.6,20.7,8.4
			c5.1,0.1,10.1-1.1,14.6-3.6c4.2-2.6,7.6-6.3,9.7-10.7l12.2,6.9c-3.6,6.5-8.8,12-15.1,15.7C485.8,120.9,478.4,123,470.8,123z"/>
		<path id="Shape" class="st0" d="M590,110.9c-12.4,12.7-31.3,16.5-47.7,9.8s-27-22.8-26.8-40.6c-0.6-15.9,7.5-30.9,21.2-39
			s30.8-8.1,44.5,0s21.9,23.1,21.2,39C602.8,91.7,598.3,102.9,590,110.9L590,110.9z M559.2,109.4c7.8,0.1,15.3-2.9,20.8-8.4
			c5.5-5.5,8.5-13.1,8.3-20.8c0.2-7.8-2.8-15.4-8.3-20.9s-13-8.6-20.9-8.5c-7.7-0.2-15.2,2.8-20.6,8.4c-11.3,11.7-11.3,30.2,0,41.8
			C544,106.5,551.5,109.6,559.2,109.4L559.2,109.4z"/>
		<polygon class="st0" points="620.5,121 620.5,0 634.5,0 634.5,121 		"/>
		<polygon class="st0" points="656.5,121 656.5,0 670.5,0 670.5,121 		"/>
		<path class="st0" d="M703.3,86.1c1.1,6.8,4.7,12.9,10.1,17.2c5.7,4.2,12.7,6.4,19.7,6.1c9.6,0.8,18.8-3.8,23.9-12.1l12.2,6.9
			c-7.8,12.4-21.6,19.5-36.2,18.7c-11.9,0.5-23.4-4-31.9-12.3c-8.3-8.2-12.8-19.5-12.6-31.2c-0.4-11.6,4-22.8,12-31.1
			c8.2-8.3,19.5-12.8,31.1-12.4c11.2-0.4,22,4.4,29.4,12.9c7.6,8.4,11.7,19.4,11.5,30.7c0,2.2-0.2,4.3-0.5,6.5H703.3z M731.8,49.5
			c-14.3-0.7-26.7,9.7-28.5,24h54.8c-0.7-6.9-4-13.3-9.2-17.8C744.1,51.7,738.1,49.5,731.8,49.5L731.8,49.5z"/>
		<path class="st0" d="M828.2,123c-11.7,0.3-23-4.2-31.2-12.4c-8.2-8.2-12.8-19.5-12.5-31.1c-0.2-11.6,4.3-22.8,12.6-31
			s19.5-12.7,31.1-12.4c7.8-0.1,15.4,1.9,22.1,5.9c6.4,3.6,11.5,9.1,14.6,15.7l-12.1,6.9c-2.1-4.4-5.5-8.1-9.8-10.6
			c-11.6-6.6-26.2-4.8-35.7,4.5c-5.5,5.6-8.5,13.2-8.3,21.1c-0.2,7.7,2.8,15.2,8.3,20.7c5.5,5.6,13,8.6,20.8,8.5
			c5.2,0.1,10.4-1.3,15-3.9c4.3-2.5,7.8-6.2,10.1-10.6l12.3,6.9c-3.6,6.5-8.9,12-15.3,15.7C843.5,120.9,836,123,828.2,123z"/>
		<path class="st0" d="M924.5,52h-22v44.8c-0.2,3.1,0.6,6.2,2.3,8.7c2,1.8,4.7,2.7,7.5,2.6c3.3,0,7.4,0,12.3,0V121
			c-9.3,2-19,1-27.6-3c-6.6-5-10-13.1-9-21.3V52h-16.4V38.2h16.4V19.3l14.4-4.3v23.1h22L924.5,52z"/>
		<path class="st0" d="M82.5,40.5V119H59.6v-7.5c-5.7,6.5-14.1,10-22.7,9.5c-20,0-36.5-18-36.5-41.5S17,38,37,38
			c8.6-0.5,16.9,3.1,22.7,9.5v-7.1H82.5z M59.6,79.6c0.4-5-1.4-10-4.8-13.6c-3.5-3.6-8.3-5.6-13.3-5.5c-5-0.2-9.8,1.8-13.3,5.5
			c-3.5,3.6-5.2,8.6-4.8,13.6c0,10.1,8.1,18.2,18.1,18.2S59.6,89.7,59.6,79.6L59.6,79.6z"/>
		<path class="st0" d="M128.7,63.3V91c0,6.9,5.7,7.4,15.8,6.9v21.4c-30,3.3-38.7-6.1-38.7-28.1V63.6H93.5V40.8h12.3V25.9l22.9-6.9
			v21.9h15.8v22.4H128.7z"/>
		<polygon class="st0" points="157.5,5 180.5,5 180.5,119 157.5,119 		"/>
		<path class="st0" d="M275.5,40.5V119h-22.9v-7.5c-5.7,6.5-14.1,10-22.7,9.5c-20,0-36.5-18-36.5-41.5S210,38,230,38
			c8.6-0.5,17,3,22.7,9.5v-7.1H275.5z M252.6,79.6c0-10.1-8.1-18.2-18.1-18.2s-18.1,8.2-18.1,18.2s8.1,18.2,18.1,18.2
			S252.6,89.7,252.6,79.6L252.6,79.6z"/>
		<path class="st0" d="M365.5,70.5V119h-22.8V74.1c0.4-3.7-0.8-7.5-3.4-10.2c-2.5-2.7-6.1-4.2-9.9-4.1c-8.4,0-14.2,5-14.2,16.2v43
			h-22.8V40.3h22.8v7.3c5.3-6.6,13.5-10.1,21.9-9.6C352.5,38.1,365.5,49.8,365.5,70.5z"/>
		<path class="st1" d="M41.7,89c3.9,0.1,7.4-2.1,9-5.7c1.6-3.5,0.8-7.7-1.9-10.5c-2.7-2.8-6.8-3.6-10.4-2.1c-3.6,1.5-5.9,5-5.9,8.8
			C32.5,84.7,36.6,88.9,41.7,89L41.7,89z"/>
		<path class="st1" d="M234.5,89c5.1-0.4,9-4.5,9-9.5s-3.9-9.1-9-9.5c-5.1,0.4-9,4.5-9,9.5S229.4,88.6,234.5,89z"/>
	</g>
</g>
</svg>
