<svg xmlns="http://www.w3.org/2000/svg" width="302" height="274" viewBox="0 0 302 274">
  <g fill="none" fill-rule="evenodd">
    <g transform="matrix(-1 0 0 1 300.258 .184)">
      <path fill="#F24E78" fill-rule="nonzero" d="M11.9909202 5.26703297C16.4709202 9.74703297 16.9509202 16.467033 16.9509202 16.467033 16.9509202 16.467033 10.3909202 16.147033 5.91092025 11.667033 1.43092025 7.18703297.950920245.467032967.950920245.467032967.950920245.467032967 7.51092025.787032967 11.9909202 5.26703297zM134.387284 20.5781441C129.75092 24.467033 122.95092 24.467033 122.95092 24.467033 122.95092 24.467033 123.878193 18.2448107 128.514557 14.3559219 133.15092 10.467033 139.95092 10.467033 139.95092 10.467033 139.95092 10.467033 139.023648 16.6892552 134.387284 20.5781441zM169.387284 34.5781441C164.75092 38.467033 157.95092 38.467033 157.95092 38.467033 157.95092 38.467033 158.878193 32.2448107 163.514557 28.3559219 168.15092 24.467033 174.95092 24.467033 174.95092 24.467033 174.95092 24.467033 174.023648 30.6892552 169.387284 34.5781441zM151.387284 75.5781441C146.75092 79.467033 139.95092 79.467033 139.95092 79.467033 139.95092 79.467033 140.878193 73.2448107 145.514557 69.3559219 150.15092 65.467033 156.95092 65.467033 156.95092 65.467033 156.95092 65.467033 156.023648 71.6892552 151.387284 75.5781441zM17.3509202 68.904397C11.5355356 66.0694949 8.95092025 59.927207 8.95092025 59.927207 8.95092025 59.927207 15.7355356 58.3522614 21.5509202 61.0296689 27.3663049 63.864571 29.9509202 70.0068589 29.9509202 70.0068589 29.9509202 70.0068589 23.1663049 71.5818046 17.3509202 68.904397z" transform="translate(61.307 146.348)"/>
      <g fill-rule="nonzero" transform="matrix(-1 0 0 1 187.123 100.011)">
        <g transform="translate(2.865 .804)">
          <path fill="#4FABBE" d="M0,12.3528981 L0,10.1941392 C0,9.59448395 0.239174568,9.11475975 0.717523703,8.7549666 C1.19587284,8.5151045 1.79380926,8.39517345 2.39174568,8.63503555 C9.56698271,11.2735186 32.7669158,17.9896574 65.6534189,8.87489765 C66.7297044,8.63503555 67.80599,8.7549666 68.6431009,9.4745529 C69.4802119,10.0742081 69.9585611,11.1535876 69.9585611,12.232967 L69.9585611,12.232967 C69.9585611,13.5522086 69.2410374,14.631588 68.0451645,15.2312433 C60.8699275,18.2295195 34.560725,27.3442793 1.67422197,14.9913812 C0.717523703,14.511657 0,13.5522086 0,12.3528981 Z"/>
          <path fill="#62E1FC" d="M0,12.3528981 L0,10.1941392 C0,9.59448395 0.239174568,9.11475975 0.717523703,8.7549666 C1.19587284,8.5151045 1.79380926,8.39517345 2.39174568,8.63503555 C9.56698271,11.2735186 32.7669158,17.9896574 65.6534189,8.87489765 C66.7297044,8.63503555 67.80599,8.7549666 68.6431009,9.4745529 C69.4802119,10.0742081 69.9585611,11.1535876 69.9585611,12.232967 L69.9585611,12.232967 C69.9585611,13.5522086 69.2410374,14.631588 68.0451645,15.2312433 C60.8699275,18.2295195 34.560725,27.3442793 1.67422197,14.9913812 C0.717523703,14.511657 0,13.5522086 0,12.3528981 Z" opacity=".2"/>
          <path fill="#62E1FC" d="M0,8.63503555 L0,12.3528981 C0,12.8326223 0.239174568,13.1924154 0.597936419,13.4322775 C0.956698271,13.6721396 1.43504741,13.6721396 1.79380926,13.5522086 C8.37110987,10.9137255 33.0060904,2.75841413 68.2843391,13.7920707 C68.7626882,13.9120017 69.1214501,13.7920707 69.4802119,13.5522086 C69.8389738,13.3123465 70.0781484,12.8326223 70.0781484,12.3528981 L70.0781484,9.59448395 C70.0781484,8.15531136 69.2410374,6.83606981 67.9255772,6.35634562 C60.5111656,3.11820728 34.0823759,-6.35634562 1.07628555,6.83606981 C0.478349136,7.19586296 0,7.79551821 0,8.63503555 Z"/>
        </g>
        <g fill="#62E1FC" transform="translate(1.865 10.804)">
          <polygon points=".362 116.844 10.37 .951 11.093 1.07 1.206 116.963"/>
          <polygon points="58.6 1.07 59.444 .951 81.871 116.844 81.148 116.963"/>
          <polygon points="16.76 116.844 20.257 9.985 21.101 10.103 17.604 116.963"/>
          <polygon points="50.522 10.46 51.245 10.341 59.565 116.844 58.721 116.963"/>
        </g>
        <ellipse cx="43.865" cy="127.804" fill="#62E1FC" rx="43" ry="7"/>
        <g transform="translate(7.865 51.804)">
          <path fill="#FFB8B8" d="M51.9658007,95.6218144 L48.9742331,101.635765 C48.9742331,101.635765 43.5894116,100.914091 45.7433402,107.890274 C45.7433402,107.890274 45.1450267,113.18255 44.0680624,114.265061 C42.9910981,115.347572 45.025364,122.804871 49.0938958,120.639849 C51.3674872,119.437059 51.6068126,118.11399 51.2478245,117.031478 C50.7691737,115.58813 50.649511,114.024503 51.0084991,112.460876 C51.4871499,110.175575 52.3247888,108.010553 53.5214158,105.965809 C56.1539952,101.756044 58.666912,97.7868366 58.666912,97.7868366 L51.9658007,95.6218144 Z"/>
          <path fill="#FFF" d="M44.5467132,59.2975528 C44.5467132,59.2975528 38.20459,57.7339256 36.0506614,58.8164368 C33.8967327,59.8989479 27.6742723,60.0192269 27.6742723,60.0192269 C27.6742723,60.0192269 22.4091134,68.3184787 23.7254031,72.6485231 C24.9220301,76.9785675 30.0675263,79.5044268 30.0675263,79.5044268 L47.2989553,79.6247058 L50.0511974,68.4387577 C50.0511974,68.4387577 48.7349077,60.7409009 47.6579434,60.2597849 C46.5809791,59.7786688 44.5467132,59.2975528 44.5467132,59.2975528 Z"/>
          <ellipse cx="38.444" cy="20.207" fill="#2F2E41" rx="9.573" ry="9.622"/>
          <path fill="#FFB8B8" d="M32.4607803,28.7466838 C32.4607803,28.7466838 33.5377446,33.3172863 31.8624668,33.7984023 C30.187189,34.2795184 28.8708993,36.4445406 28.8708993,36.4445406 L31.2641533,40.413748 L39.401217,42.4584912 L41.9141337,40.0529109 L43.7090743,35.0011924 L41.9141337,33.6781233 C41.9141337,33.6781233 40.1191932,34.1592393 40.1191932,32.4753332 C40.1191932,31.152264 40.1191932,29.8291949 40.2388559,28.6264048 L32.4607803,28.6264048 L32.4607803,28.7466838 Z"/>
          <path fill="#000" d="M32.4607803,28.7466838 C32.4607803,28.7466838 33.5377446,33.3172863 31.8624668,33.7984023 C30.187189,34.2795184 28.8708993,36.4445406 28.8708993,36.4445406 L31.2641533,40.413748 L39.401217,42.4584912 L41.9141337,40.0529109 L43.7090743,35.0011924 L41.9141337,33.6781233 C41.9141337,33.6781233 40.1191932,34.1592393 40.1191932,32.4753332 C40.1191932,31.152264 40.1191932,29.8291949 40.2388559,28.6264048 L32.4607803,28.6264048 L32.4607803,28.7466838 Z" opacity=".1"/>
          <ellipse cx="36.769" cy="25.018" fill="#FFB8B8" rx="6.94" ry="6.856"/>
          <path fill="#F24E78" d="M36.1703241,40.0529109 L29.5888755,34.0389603 C29.5888755,34.0389603 26.5973079,36.5648196 26.2383198,36.5648196 C25.8793317,36.5648196 21.4518118,37.8878887 21.3321491,38.4892838 C21.2124864,39.0906788 25.1613555,45.1046294 25.1613555,45.1046294 C25.1613555,45.1046294 24.2040539,49.5549528 25.1613555,51.479417 C26.1186571,53.4038812 25.4006809,61.703133 25.4006809,61.703133 C25.4006809,61.703133 31.383816,59.5381108 34.6147089,60.6206219 C37.8456019,61.703133 47.0596299,60.6206219 47.0596299,60.6206219 C47.0596299,60.6206219 48.3759196,51.8402541 47.8972688,50.757743 C47.2989553,49.6752319 47.1792926,43.1801652 47.1792926,43.1801652 L52.0854634,37.8878887 C52.0854634,37.8878887 51.0084991,33.7984023 47.1792926,33.5578443 C43.3500862,33.3172863 40.9568321,33.0767282 40.9568321,33.0767282 L36.1703241,40.0529109 Z"/>
          <path fill="#FFF" d="M28.8708993 68.1981997C28.8708993 68.1981997 16.1866529 62.4248071 11.0411567 59.6583898 5.89566057 56.8919726-1.88241503 59.0569948.630501702 65.3115034 3.14341843 71.566012 17.0242918 77.5799626 17.0242918 77.5799626 17.0242918 77.5799626 21.5714745 81.0680539 24.3237166 80.9477749 27.0759587 80.8274959 30.9051652 80.9477749 30.9051652 80.9477749L28.8708993 68.1981997zM48.3759196 67.9576416C48.3759196 67.9576416 70.5135194 68.1981997 69.077567 76.7380095 67.6416146 85.2778193 59.1455628 99.4707427 57.5899476 99.8315798 56.0343325 100.192417 50.4101855 97.6665576 50.4101855 96.8246045 50.4101855 95.9826514 55.7950071 81.308612 55.7950071 81.308612L42.5124472 77.0988465 48.3759196 67.9576416z"/>
          <path fill="#FFB8B8" d="M52.4444515,43.5410023 C52.4444515,43.5410023 53.7607412,56.2905775 53.042765,58.2150417 C52.4444515,60.2597849 50.0511974,65.6723404 47.1792926,68.3184787 C44.1877251,70.9646169 40.1191932,84.3155872 37.8456019,77.9407996 C35.5720106,71.566012 41.5551456,67.9576416 41.5551456,67.9576416 L47.5382807,59.4178318 L47.5382807,45.4654664 L52.4444515,43.5410023 Z"/>
          <path fill="#FFB8B8" d="M27.4349468,70.1226639 C27.4349468,70.1226639 38.3242527,74.2121503 39.5208797,73.6107552 C40.7175067,73.0093601 43.3500862,75.1743824 43.3500862,75.1743824 C45.8630029,74.5729873 48.3759196,75.1743824 50.5298482,76.6177305 C54.0000666,79.0233107 54.8377055,81.789728 54.0000666,81.910007 C53.2820904,82.030286 50.5298482,80.7072169 50.5298482,80.7072169 C50.5298482,80.7072169 46.3416537,79.7449848 43.828737,80.5869379 C41.3158202,81.428891 37.9652646,79.7449848 37.9652646,79.7449848 L24.563042,76.6177305 L27.4349468,70.1226639 Z"/>
          <path fill="#000" d="M27.4349468,70.1226639 C27.4349468,70.1226639 38.3242527,74.2121503 39.5208797,73.6107552 C40.7175067,73.0093601 43.3500862,75.1743824 43.3500862,75.1743824 C45.8630029,74.5729873 48.3759196,75.1743824 50.5298482,76.6177305 C54.0000666,79.0233107 54.8377055,81.789728 54.0000666,81.910007 C53.2820904,82.030286 50.5298482,80.7072169 50.5298482,80.7072169 C50.5298482,80.7072169 46.3416537,79.7449848 43.828737,80.5869379 C41.3158202,81.428891 37.9652646,79.7449848 37.9652646,79.7449848 L24.563042,76.6177305 L27.4349468,70.1226639 Z" opacity=".1"/>
          <path fill="#F24E78" d="M49.6922093,36.0837035 L51.9658007,37.4067727 C51.9658007,37.4067727 52.8034396,43.4207232 53.2820904,44.2626763 C53.7607412,45.1046294 48.0169315,47.1493726 47.1792926,46.5479776 C46.3416537,45.9465825 45.8630029,40.413748 45.8630029,40.413748 L49.6922093,36.0837035 Z"/>
          <path fill="#000" d="M11.7591329,61.582854 C11.7591329,61.582854 18.6995696,64.5898293 20.6141729,65.0709454 C22.5287761,65.5520614 28.8708993,70.9646169 28.8708993,70.9646169 L24.563042,77.5799626 C24.563042,77.5799626 20.1355221,76.9785675 17.8619307,76.6177305 C15.4686767,76.1366144 1.22881521,66.5142935 3.62206924,64.9506664 C6.01532327,63.3870392 11.7591329,61.582854 11.7591329,61.582854 Z" opacity=".1"/>
          <path fill="#FFF" d="M10.6821686,61.582854 C10.6821686,61.582854 17.5029426,64.4695503 19.4175458,64.9506664 C21.3321491,65.4317824 28.8708993,70.4835009 28.8708993,70.4835009 L25.1613555,77.5799626 C25.1613555,77.5799626 18.938895,76.3771725 16.6653037,75.8960564 C14.2720497,75.4149404 0.271513598,66.2737355 2.66476763,64.7101083 C4.93835896,63.1464812 10.6821686,61.582854 10.6821686,61.582854 Z"/>
          <ellipse cx="40.478" cy="13.832" fill="#2F2E41" rx="9.573" ry="9.622"/>
          <ellipse cx="42.632" cy="4.21" fill="#2F2E41" rx="4.188" ry="4.21"/>
          <path fill="#2F2E41" d="M40.2388559,53.1633232 L41.794471,53.1633232 C42.8714353,53.1633232 43.7090743,54.0052763 43.7090743,55.0877874 L43.7090743,61.9436911 C43.7090743,63.0262022 42.8714353,63.8681552 41.794471,63.8681552 L40.2388559,63.8681552 C39.1618916,63.8681552 38.3242527,63.0262022 38.3242527,61.9436911 L38.3242527,55.0877874 C38.4439154,54.0052763 39.2815543,53.1633232 40.2388559,53.1633232 Z"/>
          <ellipse cx="41.555" cy="55.208" fill="#F24E78" rx="1.197" ry="1.203"/>
          <path fill="#FFB8B8" d="M21.4518118,48.3521627 C21.4518118,48.3521627 21.5714745,62.0639701 23.2467523,63.7478762 C24.9220301,65.4317824 35.6916733,64.5898293 35.6916733,64.5898293 C35.6916733,64.5898293 42.5124472,65.6723404 45.2646894,61.823412 C48.4955823,57.4933676 36.8883003,60.981459 36.8883003,60.981459 C36.8883003,60.981459 28.6315739,61.342296 28.1529231,60.981459 C26.7169706,59.8989479 26.3579825,47.6304887 26.3579825,47.6304887 L21.4518118,48.3521627 Z"/>
          <path fill="#F24E78" d="M23.7254031,38.2487257 L22.4091134,38.2487257 C22.4091134,38.2487257 20.973161,39.9326319 21.0928237,43.6612813 C21.2124864,47.2696516 19.776534,49.5549528 20.6141729,49.9157899 C21.4518118,50.2766269 25.6400063,48.4724417 25.6400063,48.9535578 C25.6400063,49.4346738 27.793935,48.5927208 27.793935,48.5927208 L26.3579825,42.5787702 L23.7254031,38.2487257 Z"/>
        </g>
      </g>
      <g transform="matrix(-1 0 0 1 299.332 .742)">
        <path stroke="#62E1FC" d="M133.07362 107.07326C82.4006135 76.033264 90.0736196 37.0732601 86.9059723 41.1730884M153.07362 104.07326C147.237423 37.2553114 156.291948 30.5332225 151.196856 21.3584972M176.07362 109.07326C226.473654 99.0247525 265.82839 74.0682596 271.386672 70.4539739M165.07362 104.07326C203.133259 78.4134338 200.439762 65.0571429 208.313995 51.8974359M122.07362 107.07326C99.5625767 107.07326 48.0736196 81.0732601 30.8042549 64.3482075"/>
        <g fill-rule="nonzero" transform="translate(253.828 40.777)">
          <g transform="rotate(10 -.472 42.276)">
            <ellipse cx="18.829" cy="19.283" fill="#000" rx="18.535" ry="18.25" transform="rotate(90 18.83 19.283)"/>
            <ellipse cx="18.829" cy="19.283" fill="#FFF" rx="18.535" ry="18.25" transform="rotate(90 18.83 19.283)"/>
          </g>
          <g transform="rotate(10 -58.345 104.293)">
            <path fill="#28B446" d="M15.1,5.74578755 L15.1,19.6468864 C15.1,20.3882784 14.4515337,21.0369963 13.7104294,21.0369963 L1.29693252,21.0369963 C0.555828221,20.9443223 0,20.3882784 0,19.6468864 L0,1.39010989 C0,0.648717949 0.555828221,0 1.38957055,0 L9.44907975,0 L15.1,5.74578755 Z"/>
            <polygon fill="#219B38" points="10.283 5.653 15.1 7.692 15.1 5.746 12.413 4.912"/>
            <path fill="#6ACE7C" d="M15.1,5.56043956 L10.9312883,5.56043956 C10.190184,5.56043956 9.63435583,5.0043956 9.63435583,4.26300366 L9.63435583,0 L15.1,5.56043956 Z"/>
            <path fill="#FFF" d="M10.5607362,10.4721612 L3.89079755,10.4721612 C3.61288344,10.4721612 3.42760736,10.6575092 3.42760736,10.9355311 L3.42760736,17.0520147 C3.42760736,17.3300366 3.61288344,17.5153846 3.89079755,17.5153846 L10.5607362,17.5153846 C10.8386503,17.5153846 11.0239264,17.3300366 11.0239264,17.0520147 L11.0239264,10.9355311 C11.0239264,10.6575092 10.8386503,10.4721612 10.5607362,10.4721612 Z M4.26134969,13.4377289 L6.76257669,13.4377289 L6.76257669,14.5498168 L4.26134969,14.5498168 L4.26134969,13.4377289 Z M7.68895706,13.4377289 L10.190184,13.4377289 L10.190184,14.5498168 L7.68895706,14.5498168 L7.68895706,13.4377289 Z M10.097546,12.510989 L7.68895706,12.510989 L7.68895706,11.3989011 L10.190184,11.3989011 L10.190184,12.510989 L10.097546,12.510989 Z M6.76257669,11.3989011 L6.76257669,12.510989 L4.26134969,12.510989 L4.26134969,11.3989011 L6.76257669,11.3989011 Z M4.26134969,15.4765568 L6.76257669,15.4765568 L6.76257669,16.5886447 L4.26134969,16.5886447 L4.26134969,15.4765568 Z M7.68895706,16.5886447 L7.68895706,15.4765568 L10.190184,15.4765568 L10.190184,16.5886447 L7.68895706,16.5886447 Z"/>
          </g>
        </g>
        <g fill-rule="nonzero" transform="translate(134.325)">
          <ellipse cx="19.547" cy="19.091" fill="#000" rx="18.806" ry="18.349"/>
          <ellipse cx="19.547" cy="19.091" fill="#FFF" rx="18.806" ry="18.349"/>
          <g transform="translate(8.113 8.106)">
            <polygon fill="#E8762D" points="15.841 11.214 12.506 11.214 12.506 7.692 11.209 7.692 11.209 11.214 7.967 11.214 7.967 12.418 11.209 12.418 11.209 16.033 12.506 16.033 12.506 12.418 15.841 12.418"/>
            <polygon fill="#C72037" points="9.356 16.496 6.299 16.496 6.299 13.252 5.188 13.252 5.188 16.496 2.131 16.496 2.131 17.515 5.188 17.515 5.188 20.852 6.299 20.852 6.299 17.515 9.356 17.515"/>
            <polygon fill="#5B879B" points="22.326 5.375 19.269 5.375 19.269 2.132 18.157 2.132 18.157 5.375 15.1 5.375 15.1 6.487 18.157 6.487 18.157 9.731 19.269 9.731 19.269 6.487 22.326 6.487"/>
            <polygon fill="#5C6692" points="14.452 20.388 12.413 20.388 12.413 18.071 11.394 18.071 11.394 20.388 9.356 20.388 9.356 21.315 11.394 21.315 11.394 23.632 12.413 23.632 12.413 21.315 14.452 21.315"/>
            <polygon fill="#EB9129" points="9.356 5.375 6.299 5.375 6.299 2.132 5.188 2.132 5.188 5.375 2.131 5.375 2.131 6.395 5.188 6.395 5.188 9.731 6.299 9.731 6.299 6.395 9.356 6.395"/>
            <polygon fill="#5C6692" points="24.456 11.399 22.418 11.399 22.418 9.082 21.492 9.082 21.492 11.399 19.454 11.399 19.454 12.233 21.492 12.233 21.492 14.642 22.418 14.642 22.418 12.233 24.456 12.233"/>
            <polygon fill="#1F457E" points="22.326 16.496 19.269 16.496 19.269 13.252 18.157 13.252 18.157 16.496 15.1 16.496 15.1 17.515 18.157 17.515 18.157 20.852 19.269 20.852 19.269 17.515 22.326 17.515"/>
            <polygon fill="#7199A6" points="11.487 0 11.487 2.132 9.356 2.132 9.356 2.78 11.487 2.78 11.487 4.912 12.321 4.912 12.321 2.78 14.452 2.78 14.452 2.132 12.321 2.132 12.321 0"/>
            <polygon fill="#7199A6" points="5.002 11.121 2.872 11.121 2.872 9.082 2.223 9.082 2.223 11.121 0 11.121 0 11.77 2.223 11.77 2.223 13.901 2.872 13.901 2.872 11.77 5.002 11.77"/>
          </g>
        </g>
        <g fill-rule="nonzero" transform="translate(70.405 6.487)">
          <g transform="rotate(-10 42.307 -.079)">
            <ellipse cx="19.269" cy="19.214" fill="#000" rx="18.528" ry="18.535" transform="rotate(-180 19.269 19.214)"/>
            <ellipse cx="19.269" cy="19.214" fill="#FFF" rx="18.528" ry="18.535" transform="rotate(-180 19.269 19.214)"/>
          </g>
          <g transform="rotate(-10 92.704 -23.456)">
            <path fill="#00A1E0" d="M13.4325153,2.31684982 C14.3588957,1.2974359 15.7484663,0.648717949 17.2306748,0.648717949 C19.1760736,0.648717949 20.9361963,1.76080586 21.8625767,3.42893773 C22.696319,3.05824176 23.5300613,2.87289377 24.4564417,2.87289377 C28.0693252,2.87289377 30.9411043,5.74578755 30.9411043,9.36007326 C30.9411043,12.974359 28.0693252,15.8472527 24.4564417,15.8472527 C23.9932515,15.8472527 23.6226994,15.8472527 23.1595092,15.7545788 C22.3257669,17.2373626 20.8435583,18.1641026 18.9907975,18.1641026 C18.2496933,18.1641026 17.508589,17.9787546 16.9527607,17.7007326 C16.1190184,19.6468864 14.1736196,20.9443223 11.9503067,20.9443223 C9.63435583,20.9443223 7.59631902,19.4615385 6.85521472,17.4227106 C6.48466258,17.5153846 6.20674847,17.5153846 5.83619632,17.5153846 C3.05705521,17.5153846 0.833742331,15.2912088 0.833742331,12.418315 C0.833742331,10.5648352 1.85276074,8.8967033 3.33496933,8.06263736 C3.14969325,7.41391941 2.96441718,6.67252747 2.96441718,5.83846154 C2.96441718,2.59487179 5.55828221,0 8.8006135,0 C10.6533742,0 12.4134969,0.926739927 13.4325153,2.31684982"/>
            <path fill="#FFF" d="M4.44662577 10.8428571C4.44662577 10.8428571 4.44662577 10.8428571 4.44662577 10.8428571 4.5392638 10.9355311 4.5392638 10.9355311 4.63190184 11.0282051 4.90981595 11.2135531 5.18773006 11.2135531 5.55828221 11.2135531 6.20674847 11.2135531 6.57730061 10.9355311 6.57730061 10.3794872L6.57730061 10.3794872C6.57730061 9.91611722 6.11411043 9.73076923 5.74355828 9.63809524L5.65092025 9.63809524C5.37300613 9.54542125 5.09509202 9.45274725 5.09509202 9.26739927L5.09509202 9.26739927C5.09509202 9.08205128 5.2803681 8.98937729 5.46564417 8.98937729 5.74355828 8.98937729 6.02147239 9.08205128 6.2993865 9.17472527 6.2993865 9.17472527 6.39202454 9.17472527 6.39202454 9.17472527 6.39202454 9.17472527 6.48466258 8.8967033 6.48466258 8.8040293 6.48466258 8.8040293 6.48466258 8.71135531 6.48466258 8.71135531 6.20674847 8.52600733 5.83619632 8.43333333 5.55828221 8.43333333L5.46564417 8.43333333C4.90981595 8.43333333 4.5392638 8.8040293 4.5392638 9.26739927L4.5392638 9.26739927C4.5392638 9.73076923 5.00245399 9.91611722 5.37300613 10.0087912L5.46564417 10.0087912C5.74355828 10.1014652 6.02147239 10.1941392 6.02147239 10.3794872L6.02147239 10.3794872C6.02147239 10.5648352 5.83619632 10.7501832 5.55828221 10.7501832 5.46564417 10.7501832 5.09509202 10.7501832 4.72453988 10.5648352 4.72453988 10.5648352 4.63190184 10.5648352 4.63190184 10.4721612 4.63190184 10.4721612 4.5392638 10.4721612 4.5392638 10.4721612L4.44662577 10.8428571 4.44662577 10.8428571zM14.2662577 10.8428571C14.1736196 10.8428571 14.2662577 10.8428571 14.2662577 10.8428571 14.3588957 10.9355311 14.3588957 10.9355311 14.4515337 11.0282051 14.7294479 11.2135531 15.007362 11.2135531 15.3779141 11.2135531 16.0263804 11.2135531 16.3969325 10.9355311 16.3969325 10.3794872L16.3969325 10.3794872C16.3969325 9.91611722 15.9337423 9.73076923 15.5631902 9.63809524L15.4705521 9.63809524C15.192638 9.54542125 14.9147239 9.45274725 14.9147239 9.26739927L14.9147239 9.26739927C14.9147239 9.08205128 15.1 8.98937729 15.2852761 8.98937729 15.5631902 8.98937729 15.8411043 9.08205128 16.1190184 9.17472527 16.1190184 9.17472527 16.2116564 9.17472527 16.2116564 9.17472527 16.2116564 9.17472527 16.3042945 8.8967033 16.3042945 8.8040293 16.3042945 8.8040293 16.3042945 8.71135531 16.3042945 8.71135531 16.0263804 8.61868132 15.7484663 8.43333333 15.3779141 8.43333333L15.2852761 8.43333333C14.7294479 8.43333333 14.3588957 8.8040293 14.3588957 9.26739927L14.3588957 9.26739927C14.3588957 9.73076923 14.8220859 9.91611722 15.192638 10.0087912L15.2852761 10.0087912C15.5631902 10.1014652 15.8411043 10.1941392 15.8411043 10.3794872L15.8411043 10.3794872C15.8411043 10.5648352 15.6558282 10.7501832 15.3779141 10.7501832 15.2852761 10.7501832 14.9147239 10.7501832 14.5441718 10.5648352 14.5441718 10.5648352 14.4515337 10.5648352 14.4515337 10.4721612 14.4515337 10.4721612 14.3588957 10.4721612 14.3588957 10.4721612L14.2662577 10.8428571 14.2662577 10.8428571zM20.195092 9.82344322C20.195092 10.1014652 20.102454 10.3794872 20.009816 10.4721612 19.9171779 10.6575092 19.7319018 10.7501832 19.4539877 10.7501832 19.1760736 10.7501832 18.9907975 10.6575092 18.8981595 10.4721612 18.8055215 10.2868132 18.7128834 10.1014652 18.7128834 9.82344322 18.7128834 9.54542125 18.8055215 9.26739927 18.8981595 9.17472527 18.9907975 8.98937729 19.1760736 8.8967033 19.4539877 8.8967033 19.7319018 8.8967033 19.9171779 8.98937729 20.009816 9.17472527 20.195092 9.26739927 20.195092 9.45274725 20.195092 9.82344322M20.7509202 9.26739927C20.6582822 9.08205128 20.5656442 8.98937729 20.4730061 8.8040293 20.3803681 8.71135531 20.195092 8.61868132 20.009816 8.52600733 19.8245399 8.43333333 19.6392638 8.43333333 19.3613497 8.43333333 19.0834356 8.43333333 18.8981595 8.43333333 18.7128834 8.52600733 18.5276074 8.61868132 18.4349693 8.71135531 18.2496933 8.8040293 18.1570552 8.8967033 18.0644172 9.08205128 17.9717791 9.26739927 17.8791411 9.45274725 17.8791411 9.63809524 17.8791411 9.82344322 17.8791411 10.0087912 17.8791411 10.1941392 17.9717791 10.3794872 18.0644172 10.5648352 18.1570552 10.6575092 18.2496933 10.8428571 18.3423313 10.9355311 18.5276074 11.0282051 18.7128834 11.1208791 18.8981595 11.2135531 19.0834356 11.2135531 19.3613497 11.2135531 19.6392638 11.2135531 19.8245399 11.2135531 20.009816 11.1208791 20.195092 11.0282051 20.2877301 10.9355311 20.4730061 10.8428571 20.5656442 10.7501832 20.6582822 10.5648352 20.7509202 10.3794872 20.8435583 10.1941392 20.8435583 10.0087912 20.8435583 9.82344322 20.8435583 9.63809524 20.8435583 9.45274725 20.7509202 9.26739927M25.290184 10.6575092C25.290184 10.5648352 25.197546 10.6575092 25.290184 10.6575092 25.104908 10.6575092 25.104908 10.6575092 25.0122699 10.6575092 24.9196319 10.6575092 24.8269939 10.6575092 24.7343558 10.6575092 24.4564417 10.6575092 24.2711656 10.5648352 24.1785276 10.4721612 23.9932515 10.2868132 23.9932515 10.1014652 23.9932515 9.73076923 23.9932515 9.45274725 24.0858896 9.26739927 24.1785276 9.08205128 24.2711656 8.8967033 24.4564417 8.8040293 24.7343558 8.8040293 24.9196319 8.8040293 25.104908 8.8040293 25.290184 8.8967033 25.290184 8.8967033 25.290184 8.8967033 25.3828221 8.8967033 25.3828221 8.8040293 25.4754601 8.71135531 25.4754601 8.52600733 25.4754601 8.52600733 25.4754601 8.43333333 25.4754601 8.43333333 25.3828221 8.43333333 25.290184 8.34065934 25.104908 8.34065934 25.0122699 8.34065934 24.8269939 8.34065934 24.7343558 8.34065934 24.5490798 8.34065934 24.3638037 8.34065934 24.1785276 8.43333333 23.9932515 8.52600733 23.9006135 8.61868132 23.8079755 8.71135531 23.7153374 8.8040293 23.6226994 8.98937729 23.5300613 9.17472527 23.4374233 9.36007326 23.4374233 9.54542125 23.4374233 9.73076923 23.4374233 10.1941392 23.5300613 10.4721612 23.8079755 10.7501832 23.9932515 11.0282051 24.3638037 11.1208791 24.8269939 11.1208791 25.104908 11.1208791 25.3828221 11.0282051 25.5680982 11.0282051 25.5680982 11.0282051 25.5680982 11.0282051 25.5680982 10.9355311L25.290184 10.6575092 25.290184 10.6575092z"/>
            <path fill="#FFF" d="M26.1239264 9.54542125C26.1239264 9.36007326 26.2165644 9.26739927 26.3092025 9.17472527 26.4018405 8.98937729 26.5871166 8.8967033 26.8650307 8.8967033 27.1429448 8.8967033 27.3282209 8.98937729 27.4208589 9.17472527 27.5134969 9.26739927 27.5134969 9.45274725 27.5134969 9.54542125L26.1239264 9.54542125 26.1239264 9.54542125zM28.1619632 9.17472527C28.0693252 8.98937729 27.9766871 8.8040293 27.8840491 8.8040293 27.791411 8.71135531 27.606135 8.61868132 27.5134969 8.52600733 27.3282209 8.43333333 27.1429448 8.43333333 26.9576687 8.43333333 26.6797546 8.43333333 26.4944785 8.43333333 26.3092025 8.52600733 26.1239264 8.61868132 25.9386503 8.71135531 25.8460123 8.8040293 25.7533742 8.8967033 25.6607362 9.08205128 25.5680982 9.26739927 25.4754601 9.45274725 25.4754601 9.63809524 25.4754601 9.82344322 25.4754601 10.0087912 25.4754601 10.1941392 25.5680982 10.3794872 25.6607362 10.5648352 25.7533742 10.6575092 25.8460123 10.8428571 25.9386503 10.9355311 26.1239264 11.0282051 26.3092025 11.1208791 26.4944785 11.2135531 26.7723926 11.2135531 27.0503067 11.2135531 27.606135 11.2135531 27.9766871 11.1208791 28.0693252 11.0282051 28.0693252 11.0282051 28.0693252 11.0282051 28.0693252 10.9355311L27.9766871 10.6575092C27.9766871 10.5648352 27.8840491 10.6575092 27.8840491 10.6575092 27.698773 10.6575092 27.5134969 10.7501832 27.0503067 10.7501832 26.7723926 10.7501832 26.4944785 10.6575092 26.4018405 10.5648352 26.2165644 10.4721612 26.2165644 10.2868132 26.1239264 10.0087912L28.1619632 10.0087912C28.1619632 10.0087912 28.2546012 10.0087912 28.2546012 10.0087912 28.1619632 9.91611722 28.2546012 9.54542125 28.1619632 9.17472527L28.1619632 9.17472527zM11.7650307 9.54542125C11.7650307 9.36007326 11.8576687 9.26739927 11.9503067 9.17472527 12.0429448 8.98937729 12.2282209 8.8967033 12.506135 8.8967033 12.7840491 8.8967033 12.9693252 8.98937729 13.0619632 9.17472527 13.1546012 9.26739927 13.1546012 9.45274725 13.1546012 9.54542125L11.7650307 9.54542125 11.7650307 9.54542125zM13.8030675 9.17472527C13.7104294 8.98937729 13.6177914 8.8040293 13.5251534 8.8040293 13.4325153 8.71135531 13.2472393 8.61868132 13.1546012 8.52600733 12.9693252 8.43333333 12.7840491 8.43333333 12.598773 8.43333333 12.3208589 8.43333333 12.1355828 8.43333333 11.9503067 8.52600733 11.7650307 8.61868132 11.5797546 8.71135531 11.4871166 8.8040293 11.3944785 8.8967033 11.3018405 9.08205128 11.2092025 9.26739927 11.1165644 9.45274725 11.1165644 9.63809524 11.1165644 9.82344322 11.1165644 10.0087912 11.1165644 10.1941392 11.2092025 10.3794872 11.3018405 10.5648352 11.3944785 10.6575092 11.4871166 10.8428571 11.5797546 10.9355311 11.7650307 11.0282051 11.9503067 11.1208791 12.1355828 11.2135531 12.4134969 11.2135531 12.691411 11.2135531 13.2472393 11.2135531 13.6177914 11.1208791 13.7104294 11.0282051 13.7104294 11.0282051 13.7104294 11.0282051 13.7104294 10.9355311L13.6177914 10.6575092C13.6177914 10.5648352 13.5251534 10.6575092 13.5251534 10.6575092 13.3398773 10.6575092 13.1546012 10.7501832 12.691411 10.7501832 12.4134969 10.7501832 12.1355828 10.6575092 12.0429448 10.5648352 11.8576687 10.4721612 11.8576687 10.2868132 11.7650307 10.0087912L13.8030675 10.0087912C13.8030675 10.0087912 13.8957055 10.0087912 13.8957055 10.0087912 13.8957055 9.91611722 13.8957055 9.54542125 13.8030675 9.17472527L13.8030675 9.17472527zM7.78159509 10.6575092C7.68895706 10.5648352 7.68895706 10.5648352 7.68895706 10.5648352 7.68895706 10.4721612 7.59631902 10.4721612 7.59631902 10.3794872 7.59631902 10.1941392 7.68895706 10.1014652 7.78159509 10.0087912 7.78159509 10.0087912 7.96687117 9.91611722 8.33742331 9.91611722 8.61533742 9.91611722 8.8006135 9.91611722 8.8006135 9.91611722L8.8006135 10.6575092 8.8006135 10.6575092C8.8006135 10.6575092 8.52269939 10.7501832 8.33742331 10.7501832 7.87423313 10.7501832 7.78159509 10.6575092 7.78159509 10.6575092L7.78159509 10.6575092zM8.15214724 9.45274725C7.96687117 9.45274725 7.87423313 9.45274725 7.68895706 9.54542125 7.50368098 9.54542125 7.41104294 9.63809524 7.31840491 9.73076923 7.22576687 9.82344322 7.13312883 9.91611722 7.0404908 10.0087912 6.94785276 10.1014652 6.94785276 10.2868132 6.94785276 10.3794872 6.94785276 10.5648352 6.94785276 10.6575092 7.0404908 10.7501832 7.13312883 10.8428571 7.22576687 10.9355311 7.31840491 11.0282051 7.31840491 11.0282051 7.41104294 11.1208791 7.59631902 11.1208791 7.78159509 11.1208791 7.87423313 11.2135531 8.0595092 11.2135531 8.24478528 11.2135531 8.43006135 11.2135531 8.61533742 11.2135531 8.8006135 11.2135531 8.98588957 11.1208791 9.07852761 11.1208791 9.17116564 11.1208791 9.17116564 11.1208791 9.17116564 11.1208791 9.26380368 11.1208791 9.17116564 11.0282051 9.17116564 11.0282051L9.17116564 9.45274725C9.17116564 9.08205128 9.07852761 8.8040293 8.89325153 8.71135531 8.8006135 8.43333333 8.52269939 8.43333333 8.15214724 8.43333333 7.96687117 8.43333333 7.78159509 8.43333333 7.68895706 8.43333333 7.68895706 8.43333333 7.31840491 8.52600733 7.13312883 8.61868132 7.13312883 8.61868132 7.13312883 8.61868132 7.13312883 8.71135531L7.22576687 9.08205128C7.22576687 9.08205128 7.31840491 9.08205128 7.31840491 9.08205128 7.31840491 9.08205128 7.31840491 9.08205128 7.31840491 9.08205128 7.68895706 8.8967033 8.15214724 8.8967033 8.15214724 8.8967033 8.33742331 8.8967033 8.52269939 8.8967033 8.61533742 8.98937729 8.70797546 9.08205128 8.8006135 9.17472527 8.8006135 9.36007326L8.8006135 9.45274725C8.61533742 9.45274725 8.52269939 9.45274725 8.52269939 9.45274725 8.33742331 9.45274725 8.24478528 9.45274725 8.15214724 9.45274725zM23.3447853 8.52600733C23.3447853 8.43333333 23.3447853 8.43333333 23.3447853 8.52600733 23.2521472 8.43333333 23.0668712 8.43333333 22.9742331 8.43333333 22.696319 8.43333333 22.5110429 8.43333333 22.4184049 8.52600733 22.2331288 8.61868132 22.1404908 8.61868132 22.0478528 8.71135531L22.0478528 8.43333333C22.0478528 8.43333333 22.0478528 8.34065934 21.9552147 8.34065934L21.3993865 8.34065934C21.3993865 8.34065934 21.3067485 8.34065934 21.3067485 8.43333333L21.3067485 11.1208791C21.3067485 11.1208791 21.3067485 11.2135531 21.3993865 11.2135531L21.9552147 11.2135531C21.9552147 11.2135531 22.0478528 11.2135531 22.0478528 11.1208791L22.0478528 9.82344322C22.0478528 9.63809524 22.0478528 9.45274725 22.1404908 9.36007326 22.2331288 9.26739927 22.2331288 9.17472527 22.3257669 9.08205128 22.4184049 8.98937729 22.5110429 8.98937729 22.603681 8.98937729 22.696319 8.98937729 22.7889571 8.98937729 22.8815951 8.98937729 22.9742331 8.98937729 23.1595092 8.98937729 23.1595092 8.98937729 23.1595092 8.98937729 23.2521472 8.98937729 23.2521472 8.8967033 23.1595092 8.8040293 23.2521472 8.52600733 23.3447853 8.52600733M19.0834356 7.04322344C18.9907975 7.04322344 18.9907975 7.04322344 18.8981595 7.04322344 18.8055215 7.04322344 18.7128834 7.04322344 18.6202454 7.04322344 18.2496933 7.04322344 17.9717791 7.13589744 17.7865031 7.32124542 17.601227 7.41391941 17.4159509 7.69194139 17.3233129 7.96996337L17.3233129 8.06263736 16.8601227 8.06263736C16.8601227 8.06263736 16.7674847 8.06263736 16.7674847 8.15531136L16.6748466 8.52600733C16.6748466 8.52600733 16.6748466 8.61868132 16.7674847 8.61868132L17.2306748 8.61868132 16.7674847 10.6575092C16.7674847 10.8428571 16.6748466 10.9355311 16.6748466 11.0282051 16.6748466 11.1208791 16.5822086 11.2135531 16.4895706 11.3062271 16.3969325 11.3989011 16.3969325 11.3989011 16.3042945 11.3989011 16.2116564 11.3989011 16.1190184 11.3989011 16.0263804 11.3989011 15.9337423 11.3989011 15.9337423 11.3989011 15.8411043 11.3989011 15.7484663 11.3989011 15.7484663 11.3989011 15.7484663 11.3989011 15.7484663 11.3989011 15.6558282 11.3989011 15.6558282 11.3989011 15.6558282 11.3989011 15.5631902 11.6769231 15.4705521 11.7695971 15.4705521 11.7695971 15.4705521 11.8622711 15.4705521 11.8622711 15.5631902 11.8622711 15.5631902 11.8622711 15.6558282 11.8622711 15.7484663 11.8622711 15.8411043 11.8622711 15.9337423 11.8622711 16.1190184 11.8622711 16.3042945 11.8622711 16.3969325 11.7695971 16.5822086 11.7695971 16.6748466 11.6769231 16.7674847 11.5842491 16.8601227 11.4915751 16.9527607 11.3989011 17.0453988 11.2135531 17.1380368 11.0282051 17.1380368 10.8428571 17.2306748 10.6575092L17.693865 8.52600733 18.5276074 8.52600733C18.5276074 8.52600733 18.6202454 8.52600733 18.6202454 8.43333333L18.7128834 8.06263736C18.7128834 8.06263736 18.7128834 7.96996337 18.6202454 7.96996337L17.9717791 7.96996337C17.9717791 7.96996337 17.9717791 7.78461538 18.0644172 7.5992674 18.0644172 7.50659341 18.1570552 7.50659341 18.2496933 7.41391941 18.3423313 7.41391941 18.3423313 7.32124542 18.4349693 7.32124542 18.5276074 7.32124542 18.5276074 7.32124542 18.6202454 7.32124542 18.7128834 7.32124542 18.7128834 7.32124542 18.8055215 7.32124542 18.8981595 7.32124542 18.8981595 7.32124542 18.8981595 7.32124542 18.9907975 7.32124542 18.9907975 7.32124542 18.9907975 7.32124542L19.0834356 7.04322344C19.1760736 7.04322344 19.0834356 7.04322344 19.0834356 7.04322344M10.7460123 11.1208791C10.7460123 11.1208791 10.6533742 11.2135531 10.7460123 11.1208791L10.097546 11.2135531C10.097546 11.2135531 10.004908 11.2135531 10.004908 11.1208791L10.004908 7.69194139C10.004908 7.69194139 10.004908 7.5992674 10.097546 7.5992674L10.6533742 7.5992674C10.6533742 7.5992674 10.7460123 7.5992674 10.7460123 7.69194139L10.7460123 11.1208791 10.7460123 11.1208791z"/>
          </g>
        </g>
        <g fill-rule="nonzero" transform="translate(188.055 34.29)">
          <g transform="rotate(10 -.064 42.276)">
            <ellipse cx="19.238" cy="19.245" fill="#000" rx="18.535" ry="18.528" transform="rotate(90 19.238 19.245)"/>
            <ellipse cx="19.238" cy="19.245" fill="#FFF" rx="18.535" ry="18.528" transform="rotate(90 19.238 19.245)"/>
          </g>
          <path fill="#FF4A00" d="M17.601227,5.74578755 L16.8601227,5.74578755 C16.8601227,5.65311355 16.8601227,5.65311355 16.8601227,5.56043956 C16.8601227,5.37509158 16.8601227,5.28241758 16.8601227,5.0970696 C16.8601227,5.0043956 16.8601227,4.91172161 16.8601227,4.91172161 L18.7128834,4.91172161 L18.7128834,10.6575092 C18.6202454,10.6575092 18.5276074,10.6575092 18.4349693,10.6575092 C18.3423313,10.6575092 18.2496933,10.6575092 18.1570552,10.6575092 C18.0644172,10.6575092 17.9717791,10.6575092 17.8791411,10.6575092 C17.7865031,10.6575092 17.693865,10.6575092 17.601227,10.6575092 L17.601227,5.74578755 L17.601227,5.74578755 L17.601227,5.74578755 Z M23.9932515,7.22857143 C23.9932515,7.04322344 23.9932515,6.85787546 23.9006135,6.67252747 C23.8079755,6.48717949 23.7153374,6.3018315 23.6226994,6.20915751 C23.5300613,6.02380952 23.3447853,5.93113553 23.1595092,5.83846154 C22.9742331,5.74578755 22.7889571,5.74578755 22.5110429,5.74578755 C22.0478528,5.74578755 21.6773006,5.83846154 21.4920245,6.11648352 C21.2141104,6.39450549 21.1214724,6.76520147 21.0288344,7.22857143 L23.9932515,7.22857143 L23.9932515,7.22857143 Z M21.1214724,8.06263736 C21.1214724,8.71135531 21.3067485,9.17472527 21.5846626,9.45274725 C21.8625767,9.73076923 22.3257669,9.91611722 22.9742331,9.91611722 C23.5300613,9.91611722 23.9932515,9.82344322 24.4564417,9.63809524 C24.5490798,9.73076923 24.5490798,9.91611722 24.6417178,10.0087912 C24.6417178,10.1941392 24.7343558,10.2868132 24.7343558,10.4721612 C24.4564417,10.5648352 24.1785276,10.6575092 23.9006135,10.7501832 C23.6226994,10.8428571 23.2521472,10.8428571 22.8815951,10.8428571 C22.3257669,10.8428571 21.8625767,10.7501832 21.4920245,10.6575092 C21.1214724,10.4721612 20.8435583,10.2868132 20.5656442,10.0087912 C20.2877301,9.73076923 20.102454,9.45274725 20.009816,9.08205128 C19.9171779,8.71135531 19.8245399,8.34065934 19.8245399,7.87728938 C19.8245399,7.41391941 19.9171779,7.04322344 20.009816,6.67252747 C20.102454,6.3018315 20.2877301,6.02380952 20.4730061,5.74578755 C20.6582822,5.46776557 20.9361963,5.28241758 21.3067485,5.0970696 C21.6773006,4.91172161 22.0478528,4.81904762 22.5110429,4.81904762 C22.8815951,4.81904762 23.2521472,4.91172161 23.5300613,5.0043956 C23.8079755,5.0970696 24.0858896,5.28241758 24.2711656,5.56043956 C24.4564417,5.83846154 24.6417178,6.11648352 24.7343558,6.39450549 C25.0122699,6.67252747 25.104908,7.04322344 25.104908,7.41391941 C25.104908,7.50659341 25.104908,7.5992674 25.104908,7.78461538 C25.104908,7.87728938 25.104908,7.96996337 25.104908,8.06263736 L21.1214724,8.06263736 L21.1214724,8.06263736 L21.1214724,8.06263736 Z M26.3092025,4.91172161 C26.4018405,4.91172161 26.4944785,4.91172161 26.5871166,4.91172161 C26.6797546,4.91172161 26.7723926,4.91172161 26.8650307,4.91172161 C26.9576687,4.91172161 27.0503067,4.91172161 27.1429448,4.91172161 C27.2355828,4.91172161 27.3282209,4.91172161 27.3282209,4.91172161 C27.3282209,5.0043956 27.3282209,5.18974359 27.4208589,5.37509158 C27.4208589,5.56043956 27.4208589,5.74578755 27.4208589,5.83846154 C27.5134969,5.56043956 27.791411,5.37509158 27.9766871,5.18974359 C28.2546012,5.0043956 28.5325153,4.91172161 28.9957055,4.91172161 C29.0883436,4.91172161 29.0883436,4.91172161 29.1809816,4.91172161 C29.2736196,4.91172161 29.2736196,4.91172161 29.3662577,4.91172161 C29.3662577,5.0043956 29.3662577,5.0043956 29.3662577,5.0970696 C29.3662577,5.18974359 29.3662577,5.28241758 29.3662577,5.37509158 C29.3662577,5.46776557 29.3662577,5.56043956 29.3662577,5.65311355 C29.3662577,5.74578755 29.3662577,5.83846154 29.3662577,5.93113553 C29.2736196,5.93113553 29.2736196,5.93113553 29.1809816,5.93113553 L28.9957055,5.93113553 C28.8104294,5.93113553 28.6251534,5.93113553 28.4398773,6.02380952 C28.2546012,6.11648352 28.0693252,6.20915751 27.9766871,6.3018315 C27.791411,6.48717949 27.698773,6.67252747 27.606135,6.85787546 C27.5134969,7.13589744 27.5134969,7.41391941 27.5134969,7.78461538 L27.5134969,10.6575092 C27.4208589,10.6575092 27.3282209,10.6575092 27.2355828,10.6575092 C27.1429448,10.6575092 27.0503067,10.6575092 26.9576687,10.6575092 C26.8650307,10.6575092 26.7723926,10.6575092 26.6797546,10.6575092 C26.5871166,10.6575092 26.4944785,10.6575092 26.4018405,10.6575092 L26.3092025,4.91172161 L26.3092025,4.91172161 Z M18.4349693,1.85347985 C18.4349693,1.94615385 18.4349693,2.13150183 18.3423313,2.22417582 C18.2496933,2.31684982 18.0644172,2.31684982 17.9717791,2.31684982 L17.9717791,2.31684982 C17.8791411,2.31684982 17.693865,2.31684982 17.601227,2.22417582 C17.508589,2.13150183 17.508589,1.94615385 17.508589,1.85347985 L17.508589,1.85347985 C17.508589,1.76080586 17.508589,1.57545788 17.601227,1.48278388 C17.693865,1.39010989 17.8791411,1.39010989 17.9717791,1.39010989 L17.9717791,1.39010989 C18.1570552,1.39010989 18.2496933,1.39010989 18.3423313,1.48278388 C18.4349693,1.57545788 18.4349693,1.66813187 18.4349693,1.85347985 L18.4349693,1.85347985 L18.4349693,1.85347985 L18.4349693,1.85347985 Z M19.8245399,1.57545788 L18.7128834,1.57545788 L19.4539877,0.741391941 C19.3613497,0.556043956 19.1760736,0.463369963 18.9907975,0.278021978 L18.2496933,1.01941392 L18.2496933,0 C18.1570552,0 18.0644172,0 17.9717791,0 L17.9717791,0 C17.8791411,0 17.7865031,0 17.693865,0 L17.693865,1.11208791 L16.9527607,0.370695971 C16.7674847,0.370695971 16.6748466,0.463369963 16.6748466,0.556043956 L16.6748466,0.556043956 C16.5822086,0.648717949 16.4895706,0.741391941 16.4895706,0.834065934 L17.2306748,1.57545788 L16.1190184,1.57545788 C16.1190184,1.57545788 16.1190184,1.76080586 16.1190184,1.85347985 L16.1190184,1.85347985 C16.1190184,1.94615385 16.1190184,2.03882784 16.1190184,2.13150183 L17.2306748,2.13150183 L16.4895706,2.87289377 C16.5822086,3.05824176 16.7674847,3.15091575 16.9527607,3.33626374 L17.601227,2.59487179 L17.601227,3.70695971 C17.693865,3.70695971 17.7865031,3.70695971 17.8791411,3.70695971 L17.8791411,3.70695971 C17.9717791,3.70695971 18.0644172,3.70695971 18.1570552,3.70695971 L18.1570552,2.59487179 L18.8981595,3.33626374 C18.9907975,3.24358974 19.0834356,3.24358974 19.1760736,3.15091575 L19.1760736,3.15091575 C19.3613497,3.05824176 19.4539877,2.96556777 19.4539877,2.96556777 L18.7128834,2.22417582 L19.8245399,2.22417582 C19.8245399,2.13150183 19.8245399,2.03882784 19.8245399,1.94615385 L19.8245399,1.94615385 C19.8245399,1.76080586 19.8245399,1.66813187 19.8245399,1.57545788 L19.8245399,1.57545788 L19.8245399,1.57545788 Z M0,10.4721612 L3.05705521,5.83846154 L0.370552147,5.83846154 C0.370552147,5.74578755 0.370552147,5.56043956 0.370552147,5.37509158 C0.370552147,5.18974359 0.370552147,5.0970696 0.370552147,4.91172161 L4.72453988,4.91172161 L4.81717791,5.0970696 L1.7601227,9.82344322 L4.63190184,9.82344322 C4.63190184,10.0087912 4.63190184,10.1014652 4.63190184,10.2868132 C4.63190184,10.4721612 4.63190184,10.5648352 4.63190184,10.7501832 L0.0926380368,10.7501832 L0,10.4721612 L0,10.4721612 Z M8.8006135,7.96996337 C8.70797546,7.96996337 8.52269939,7.96996337 8.33742331,7.96996337 C8.15214724,7.96996337 8.0595092,7.96996337 7.87423313,7.96996337 C7.41104294,7.87728938 7.13312883,7.96996337 6.85521472,8.15531136 C6.57730061,8.24798535 6.48466258,8.52600733 6.48466258,8.8967033 C6.48466258,9.08205128 6.48466258,9.26739927 6.57730061,9.45274725 C6.66993865,9.54542125 6.76257669,9.63809524 6.85521472,9.73076923 C6.94785276,9.82344322 7.13312883,9.82344322 7.22576687,9.82344322 C7.41104294,9.82344322 7.50368098,9.82344322 7.68895706,9.82344322 C7.87423313,9.82344322 8.0595092,9.82344322 8.24478528,9.82344322 C8.43006135,9.82344322 8.61533742,9.73076923 8.70797546,9.73076923 L8.8006135,7.96996337 L8.8006135,7.96996337 Z M8.8006135,6.85787546 C8.8006135,6.39450549 8.70797546,6.11648352 8.43006135,5.93113553 C8.24478528,5.74578755 7.87423313,5.65311355 7.50368098,5.65311355 C7.22576687,5.65311355 7.0404908,5.65311355 6.76257669,5.74578755 C6.48466258,5.74578755 6.2993865,5.83846154 6.02147239,5.93113553 C5.92883436,5.65311355 5.83619632,5.37509158 5.83619632,5.0043956 C6.11411043,4.91172161 6.39202454,4.81904762 6.66993865,4.81904762 C6.94785276,4.81904762 7.31840491,4.72637363 7.59631902,4.72637363 C8.33742331,4.72637363 8.89325153,4.91172161 9.26380368,5.28241758 C9.63435583,5.65311355 9.8196319,6.11648352 9.8196319,6.85787546 L9.8196319,10.4721612 C9.54171779,10.5648352 9.26380368,10.5648352 8.89325153,10.6575092 C8.52269939,10.7501832 8.15214724,10.7501832 7.78159509,10.7501832 C7.41104294,10.7501832 7.0404908,10.7501832 6.76257669,10.6575092 C6.48466258,10.5648352 6.20674847,10.4721612 6.02147239,10.3794872 C5.83619632,10.1941392 5.65092025,10.0087912 5.55828221,9.73076923 C5.46564417,9.54542125 5.37300613,9.26739927 5.37300613,8.8967033 C5.37300613,8.61868132 5.46564417,8.34065934 5.55828221,8.06263736 C5.65092025,7.78461538 5.83619632,7.5992674 6.11411043,7.50659341 C6.2993865,7.32124542 6.57730061,7.22857143 6.85521472,7.13589744 C7.13312883,7.04322344 7.41104294,7.04322344 7.78159509,7.04322344 C8.0595092,7.04322344 8.24478528,7.04322344 8.33742331,7.04322344 C8.52269939,7.04322344 8.61533742,7.04322344 8.70797546,7.04322344 L8.8006135,6.85787546 L8.8006135,6.85787546 Z M12.2282209,9.63809524 C12.4134969,9.73076923 12.506135,9.73076923 12.691411,9.73076923 C12.8766871,9.73076923 13.0619632,9.73076923 13.2472393,9.73076923 C13.5251534,9.73076923 13.8030675,9.73076923 13.9883436,9.63809524 C14.1736196,9.54542125 14.4515337,9.45274725 14.5441718,9.26739927 C14.7294479,9.08205128 14.8220859,8.8967033 14.9147239,8.61868132 C15.007362,8.34065934 15.1,8.06263736 15.1,7.69194139 C15.1,7.13589744 15.007362,6.67252747 14.7294479,6.3018315 C14.5441718,5.93113553 14.1736196,5.74578755 13.6177914,5.74578755 C13.4325153,5.74578755 13.2472393,5.74578755 13.0619632,5.83846154 C12.8766871,5.93113553 12.691411,6.02380952 12.598773,6.11648352 C12.506135,6.20915751 12.3208589,6.39450549 12.2282209,6.57985348 C12.1355828,6.76520147 12.1355828,7.04322344 12.1355828,7.32124542 L12.2282209,9.63809524 L12.2282209,9.63809524 L12.2282209,9.63809524 Z M11.1165644,4.91172161 C11.2092025,4.91172161 11.3018405,4.91172161 11.3018405,4.91172161 C11.3944785,4.91172161 11.4871166,4.91172161 11.5797546,4.91172161 C11.6723926,4.91172161 11.7650307,4.91172161 11.8576687,4.91172161 C11.9503067,4.91172161 12.0429448,4.91172161 12.1355828,4.91172161 C12.1355828,4.91172161 12.1355828,5.0043956 12.1355828,5.0970696 C12.1355828,5.18974359 12.1355828,5.28241758 12.1355828,5.37509158 C12.1355828,5.46776557 12.1355828,5.56043956 12.1355828,5.65311355 C12.1355828,5.74578755 12.1355828,5.74578755 12.1355828,5.83846154 C12.2282209,5.74578755 12.3208589,5.56043956 12.4134969,5.46776557 C12.506135,5.37509158 12.598773,5.28241758 12.7840491,5.18974359 C12.9693252,5.0970696 13.0619632,5.0043956 13.2472393,5.0043956 C13.4325153,4.91172161 13.6177914,4.91172161 13.8957055,4.91172161 C14.2662577,4.91172161 14.5441718,5.0043956 14.8220859,5.0970696 C15.1,5.18974359 15.3779141,5.37509158 15.5631902,5.65311355 C15.7484663,5.93113553 15.9337423,6.20915751 16.0263804,6.57985348 C16.1190184,6.95054945 16.2116564,7.32124542 16.2116564,7.87728938 C16.2116564,8.8967033 15.9337423,9.63809524 15.3779141,10.1941392 C14.8220859,10.7501832 14.0809816,11.0282051 13.0619632,11.0282051 C12.8766871,11.0282051 12.691411,11.0282051 12.598773,11.0282051 C12.4134969,11.0282051 12.3208589,10.9355311 12.1355828,10.9355311 L12.1355828,13.5304029 C12.0429448,13.5304029 11.9503067,13.5304029 11.8576687,13.5304029 C11.7650307,13.5304029 11.6723926,13.5304029 11.5797546,13.5304029 C11.4871166,13.5304029 11.3944785,13.5304029 11.3018405,13.5304029 C11.2092025,13.5304029 11.1165644,13.5304029 11.0239264,13.5304029 L11.1165644,4.91172161 L11.1165644,4.91172161 Z" transform="rotate(10 -74.548 64.093)"/>
        </g>
        <g fill-rule="nonzero" transform="rotate(-15 169.766 20.582)">
          <g transform="rotate(10 -.807 42.468)">
            <ellipse cx="18.567" cy="19.452" fill="#000" rx="18.528" ry="18.535" transform="rotate(180 18.567 19.452)"/>
            <ellipse cx="18.567" cy="19.452" fill="#FFF" rx="18.528" ry="18.535" transform="rotate(180 18.567 19.452)"/>
          </g>
          <g transform="translate(11.113 11.124)">
            <path fill="#E01E5A" d="M5.00245399 2.5021978C5.00245399 3.7996337 3.89079755 4.91172161 2.59386503 4.91172161 1.29693252 4.91172161.185276074 3.7996337.185276074 2.5021978.185276074 1.2047619 1.29693252.0926739927 2.59386503.0926739927L5.00245399.0926739927 5.00245399 2.5021978zM6.20674847 2.5021978C6.20674847 1.2047619 7.31840491.0926739927 8.61533742.0926739927 9.91226994.0926739927 11.0239264 1.2047619 11.0239264 2.5021978L11.0239264 8.61868132C11.0239264 9.91611722 9.91226994 11.0282051 8.61533742 11.0282051 7.31840491 11.0282051 6.20674847 9.91611722 6.20674847 8.61868132L6.20674847 2.5021978z" transform="translate(0 12.048)"/>
            <path fill="#36C5F0" d="M8.61533742 5.0043956C7.31840491 5.0043956 6.20674847 3.89230769 6.20674847 2.59487179 6.20674847 1.2974359 7.31840491.185347985 8.61533742.185347985 9.91226994.185347985 11.0239264 1.2974359 11.0239264 2.59487179L11.0239264 5.0043956 8.61533742 5.0043956zM8.61533742 6.20915751C9.91226994 6.20915751 11.0239264 7.32124542 11.0239264 8.61868132 11.0239264 9.91611722 9.91226994 11.0282051 8.61533742 11.0282051L2.50122699 11.0282051C1.20429448 11.0282051.0926380368 9.91611722.0926380368 8.61868132.0926380368 7.32124542 1.20429448 6.20915751 2.50122699 6.20915751L8.61533742 6.20915751z"/>
            <path fill="#2EB67D" d="M6.11411043 8.61868132C6.11411043 7.32124542 7.22576687 6.20915751 8.52269939 6.20915751 9.8196319 6.20915751 10.9312883 7.32124542 10.9312883 8.61868132 10.9312883 9.91611722 9.8196319 11.0282051 8.52269939 11.0282051L6.11411043 11.0282051 6.11411043 8.61868132zM4.90981595 8.61868132C4.90981595 9.91611722 3.79815951 11.0282051 2.50122699 11.0282051 1.20429448 11.0282051.0926380368 9.91611722.0926380368 8.61868132L.0926380368 2.5021978C.0926380368 1.2047619 1.20429448.0926739927 2.50122699.0926739927 3.79815951.0926739927 4.90981595 1.2047619 4.90981595 2.5021978L4.90981595 8.61868132z" transform="translate(12.043)"/>
            <path fill="#ECB22E" d="M2.50122699 6.11648352C3.79815951 6.11648352 4.90981595 7.22857143 4.90981595 8.52600733 4.90981595 9.82344322 3.79815951 10.9355311 2.50122699 10.9355311 1.20429448 10.9355311.0926380368 9.82344322.0926380368 8.52600733L.0926380368 6.11648352 2.50122699 6.11648352zM2.50122699 4.91172161C1.20429448 4.91172161.0926380368 3.7996337.0926380368 2.5021978.0926380368 1.2047619 1.20429448.0926739927 2.50122699.0926739927L8.61533742.0926739927C9.91226994.0926739927 11.0239264 1.2047619 11.0239264 2.5021978 11.0239264 3.7996337 9.91226994 4.91172161 8.61533742 4.91172161L2.50122699 4.91172161z" transform="translate(12.043 12.048)"/>
          </g>
        </g>
      </g>
    </g>
    <path fill="#FFF" fill-rule="nonzero" d="M247.9,108.1 C232.1,46.4 177.8,1.8 114,0.1 C80.2,-0.9 44.7,10.3 18.9,49.3 C-27.3,119.1 21.7,167.3 55.9,190.2 C72.4,201.3 87.3,214.6 100.1,229.8 C123.2,257.1 167.6,291.1 220.6,237.9 C258.9,199.4 258.4,149.2 247.9,108.1" opacity=".125"/>
  </g>
</svg>
